<?xml version="1.0" encoding="UTF-8"?>
<svg width="40px" height="40px" viewBox="0 0 40 40" version="1.1" xmlns="http://www.w3.org/2000/svg" xmlns:xlink="http://www.w3.org/1999/xlink">
    <title>logo</title>
    <g id="页面-1" stroke="none" stroke-width="1" fill="none" fill-rule="evenodd">
        <g id="模型广场" transform="translate(-18.000000, -16.000000)" fill="#6445FF" fill-rule="nonzero">
            <g id="路径" transform="translate(18.000000, 16.000000)">
                <path d="M38.4063052,12.3941959 C35.4089624,5.12047158 28.2342882,-0.008602223 19.9097712,0 C15.8444096,0.00431735838 12.0675853,1.22306454 8.91520748,3.31603672 C7.05909429,4.54770348 6.81792877,7.18329808 8.43287644,8.72072826 L8.43287644,8.72072826 C9.70330195,9.93516891 11.6843044,10.0083799 13.0365539,8.88437629 C15.3104003,6.99381088 18.208693,5.86119425 21.3696839,5.86119425 C26.0810246,5.86119425 30.2152907,8.38051262 32.5537349,12.1702565 C24.6598707,9.53896842 21.1715837,18.6946451 21.1715837,18.6946451 C20.66772,19.5473375 19.8623994,19.6550006 19.8623994,19.6550006 C17.7220555,20.3397384 16.9942524,15.262343 16.9942524,15.262343 C16.8650566,13.7895107 16.3999516,12.0625933 16.3999516,12.0625933 C15.986525,10.2366258 15.0649282,10.3055302 15.0649282,10.3055302 C13.8117288,10.5596153 12.2958313,13.4277624 12.2958313,13.4277624 C8.82477041,12.3812763 5.5991816,13.1090794 5.5991816,13.1090794 C5.25896595,11.145303 4.56992161,9.98254071 4.56992161,9.98254071 C3.86365116,8.84992408 2.70950189,10.3055302 2.70950189,10.3055302 C-0.740026335,14.9264339 0.0868268737,23.0873028 0.0868268737,23.0873028 C3.78182715,40.7828227 20.2801326,39.9947283 20.2801326,39.9947283 C37.4459497,39.3875079 39.5992133,23.2552573 39.5992133,23.2552573 C40.4174534,16.847145 38.4063052,12.3941959 38.4063052,12.3941959 Z"></path>
            </g>
        </g>
    </g>
</svg>