<svg class="wsc-svg-logo" width="120" height="120" viewBox="0 0 120 120" fill="none" xmlns="http://www.w3.org/2000/svg">
<rect width="120" height="120" rx="27.375" fill="url(#paint0_linear_8_44246)"/>
<path d="M79.9277 40.7873C82.3108 43.1703 82.3108 47.0339 79.9277 49.417L49.417 79.9276C47.034 82.3106 43.1703 82.3106 40.7873 79.9276C38.4042 77.5446 38.4042 73.6809 40.7873 71.2979L71.298 40.7873C73.681 38.4042 77.5447 38.4042 79.9277 40.7873Z" fill="white" fill-opacity="0.6"/>
<path d="M35.2043 44.5375V76.095L40.0426 71.2567C42.4257 68.8737 46.2893 68.8737 48.6724 71.2567C51.0554 73.6397 51.0554 77.5034 48.6724 79.8864L38.6255 89.9332C32.8593 95.6994 23 91.6156 23 83.4609V37.1715C23 29.0169 32.8593 24.9331 38.6255 30.6993L84.0214 76.095V44.5375L79.1831 49.3758C76.8 51.7588 72.9364 51.7588 70.5533 49.3758C68.1703 46.9928 68.1703 43.1291 70.5533 40.7461L80.6002 30.6993C86.3664 24.9331 96.2257 29.0169 96.2257 37.1715V83.4609C96.2257 91.6156 86.3664 95.6994 80.6002 89.9332L35.2043 44.5375Z" fill="white"/>
<defs>
<linearGradient id="paint0_linear_8_44246" x1="120" y1="150.636" x2="-25.6602" y2="-6.91205" gradientUnits="userSpaceOnUse">
<stop stop-color="#008899"/>
<stop offset="1" stop-color="#66FF66"/>
</linearGradient>
</defs>
</svg>
