<svg width="1024" height="1024" viewBox="0 0 1024 1024" fill="none" xmlns="http://www.w3.org/2000/svg">
<g clip-path="url(#clip0_1063_2441)">
<rect width="1024" height="1024" fill="#0B0215"/>
<g opacity="0.2" filter="url(#filter0_f_1063_2441)">
<ellipse cx="512.001" cy="970.092" rx="779.401" ry="640.509" fill="url(#paint0_radial_1063_2441)"/>
</g>
<g opacity="0.3" filter="url(#filter1_f_1063_2441)">
<ellipse cx="512.003" cy="953.344" rx="618.97" ry="322.952" fill="#420C80"/>
</g>
<g opacity="0.7" filter="url(#filter2_f_1063_2441)">
<ellipse cx="511.998" cy="1196.23" rx="374.664" ry="282.469" fill="#511C9C" fill-opacity="0.7"/>
</g>
<path d="M493.734 882.384L306.067 794.07V310.798C306.067 287.852 316.106 262.384 332.331 246.159L375.725 202.765L565.427 820.065C578.769 863.168 534.56 901.596 493.734 882.384Z" fill="url(#paint1_linear_1063_2441)"/>
<path d="M755.325 400.304L541.278 164.853C508.049 128.301 451.013 126.944 416.083 161.874L332.329 246.16C316.341 264.432 307.206 283.641 307.206 306.587V789.859L735.82 532.691C782.636 504.601 792.05 440.703 755.325 400.304Z" fill="url(#paint2_linear_1063_2441)"/>
</g>
<defs>
<filter id="filter0_f_1063_2441" x="-779.4" y="-182.417" width="2582.8" height="2305.02" filterUnits="userSpaceOnUse" color-interpolation-filters="sRGB">
<feFlood flood-opacity="0" result="BackgroundImageFix"/>
<feBlend mode="normal" in="SourceGraphic" in2="BackgroundImageFix" result="shape"/>
<feGaussianBlur stdDeviation="256" result="effect1_foregroundBlur_1063_2441"/>
</filter>
<filter id="filter1_f_1063_2441" x="-533.633" y="203.725" width="2091.27" height="1499.24" filterUnits="userSpaceOnUse" color-interpolation-filters="sRGB">
<feFlood flood-opacity="0" result="BackgroundImageFix"/>
<feBlend mode="normal" in="SourceGraphic" in2="BackgroundImageFix" result="shape"/>
<feGaussianBlur stdDeviation="213.333" result="effect1_foregroundBlur_1063_2441"/>
</filter>
<filter id="filter2_f_1063_2441" x="-82.666" y="693.763" width="1189.33" height="1004.94" filterUnits="userSpaceOnUse" color-interpolation-filters="sRGB">
<feFlood flood-opacity="0" result="BackgroundImageFix"/>
<feBlend mode="normal" in="SourceGraphic" in2="BackgroundImageFix" result="shape"/>
<feGaussianBlur stdDeviation="110" result="effect1_foregroundBlur_1063_2441"/>
</filter>
<radialGradient id="paint0_radial_1063_2441" cx="0" cy="0" r="1" gradientUnits="userSpaceOnUse" gradientTransform="translate(512.001 970.092) rotate(90) scale(640.509 779.401)">
<stop stop-color="#4417A5"/>
<stop offset="1" stop-color="#320D5A"/>
</radialGradient>
<linearGradient id="paint1_linear_1063_2441" x1="-34.7803" y1="309.568" x2="562.195" y2="880.588" gradientUnits="userSpaceOnUse">
<stop stop-color="#FE9E58"/>
<stop offset="0.396099" stop-color="#E470EC"/>
<stop offset="1" stop-color="#442FBA"/>
</linearGradient>
<linearGradient id="paint2_linear_1063_2441" x1="648.056" y1="305.358" x2="51.0808" y2="876.378" gradientUnits="userSpaceOnUse">
<stop stop-color="#FFA052"/>
<stop offset="0.396099" stop-color="#E36CFA" stop-opacity="0.8"/>
<stop offset="1" stop-color="#442FBA" stop-opacity="0.7"/>
</linearGradient>
<clipPath id="clip0_1063_2441">
<rect width="1024" height="1024" fill="white"/>
</clipPath>
</defs>
</svg>
