<?xml version="1.0" encoding="utf-8"?>
<!-- Generator: Adobe Illustrator 22.0.0, SVG Export Plug-In . SVG Version: 6.00 Build 0)  -->
<svg version="1.1" id="图层_1" xmlns="http://www.w3.org/2000/svg" xmlns:xlink="http://www.w3.org/1999/xlink" x="0px" y="0px"
	 viewBox="0 0 32 32" style="enable-background:new 0 0 32 32;" xml:space="preserve">
<style type="text/css">
	.st0{fill:#4961F0;}
	.st1{fill:#98EBFB;}
	.st2{fill:#FFFFFF;}
</style>
<path class="st0" d="M29.3,4.9h-3.9c0,0,0,0,0,0H15.3c-2.2,0-4.1,1.8-4.1,4v4.3l-4,5.2h4v5.2c0,2.2,1.8,4,4.1,4h10.8
	c0.3,0,0.5,0,0.8-0.1L32,32v-8.5v-3v-5.6v-2.4v-5C32,6,30.8,4.9,29.3,4.9z"/>
<path class="st1" d="M20.7,8.3V4c0-2.2-1.8-4-4.1-4H4.1C1.8,0,0,1.8,0,4v11.7v3v8.5l5.1-4.6c0.3,0.1,0.5,0.1,0.8,0.1h10.8
	c2.2,0,4.1-1.8,4.1-4v-5.2h4L20.7,8.3z"/>
<path class="st2" d="M15.3,4.9c-2.2,0-4.1,1.8-4.1,4v4.3l-4,5.2h4v4.3h5.4c2.2,0,4.1-1.8,4.1-4v-5.2h4l-4-5.2V4.9H15.3z"/>
</svg>
